<svg width="45" height="43" viewBox="0 0 45 43" fill="none" xmlns="http://www.w3.org/2000/svg">
<g filter="url(#filter0_d_232_5187)">
<path d="M7 0V3H4V6H1V34H4V37H7V40H10V0H7Z" fill="white"/>
</g>
<path d="M7 3V0H10V3V6H7V9H4V31H7V34H10V37V40H7V37H4V34H1V6H4V3H7Z" fill="white"/>
<g filter="url(#filter1_d_232_5187)">
<rect width="22" height="40" transform="translate(10)" fill="white"/>
<rect x="10" width="22" height="3" fill="white"/>
<g clip-path="url(#clip0_232_5187)">
<path d="M14.5799 19.4623C14.5799 18.9545 14.997 18.5374 15.5039 18.5374H17.0623C17.5701 18.5374 18.0048 18.9545 18.0048 19.4808V25.3583C18.1861 25.3037 18.4035 25.2492 18.6578 25.1946C19.0019 25.104 19.2562 24.796 19.2562 24.4325V17.14C19.2562 16.6322 19.6733 16.1966 20.1987 16.1966H21.7571C22.2649 16.1966 22.6996 16.6137 22.6996 17.14V23.9072C22.6996 23.9072 23.0807 23.7435 23.4608 23.5807C23.7512 23.454 23.9325 23.182 23.9325 22.8547V14.7824C23.9325 14.2747 24.3496 13.8391 24.8574 13.8391H26.4159C26.9236 13.8391 27.3407 14.2562 27.3407 14.7824V21.4405C28.6819 20.4611 30.0599 19.2819 31.1476 17.8668C31.4741 17.4497 31.5647 16.905 31.3835 16.3972C29.3894 10.6649 23.1185 7.6166 17.3906 9.61244C11.6627 11.6083 8.61786 17.8844 10.6111 23.6176C10.8284 24.2706 11.1188 24.8875 11.4629 25.4859C11.7348 25.9576 12.2426 26.2295 12.7864 26.1749C13.0768 26.1564 13.4394 26.1204 13.8917 26.0658C14.2903 26.0297 14.5807 25.6848 14.5807 25.2852L14.5799 19.4623Z" fill="black"/>
<path d="M14.543 28.8959C19.4551 32.4695 26.3253 31.381 29.8954 26.4653C31.255 24.5786 31.9978 22.3108 31.9978 19.9894C31.9978 19.7351 31.9793 19.4816 31.9617 19.2273C27.9568 25.2315 20.5428 28.0431 14.543 28.8959Z" fill="black"/>
</g>
<rect x="10" y="37" width="22" height="3" fill="white"/>
</g>
<g filter="url(#filter2_d_232_5187)">
<path d="M35 40V37H38V34H41V6H38V3H35V0H32V40H35Z" fill="white"/>
</g>
<path d="M35 37V40H32V37V34H35V31H38V9H35V6H32V3V0H35V3H38V6H41V34H38V37H35Z" fill="white"/>
<defs>
<filter id="filter0_d_232_5187" x="1" y="0" width="12" height="43" filterUnits="userSpaceOnUse" color-interpolation-filters="sRGB">
<feFlood flood-opacity="0" result="BackgroundImageFix"/>
<feColorMatrix in="SourceAlpha" type="matrix" values="0 0 0 0 0 0 0 0 0 0 0 0 0 0 0 0 0 0 127 0" result="hardAlpha"/>
<feOffset dx="3" dy="3"/>
<feComposite in2="hardAlpha" operator="out"/>
<feColorMatrix type="matrix" values="0 0 0 0 0.117647 0 0 0 0 0.117647 0 0 0 0 0.117647 0 0 0 1 0"/>
<feBlend mode="normal" in2="BackgroundImageFix" result="effect1_dropShadow_232_5187"/>
<feBlend mode="normal" in="SourceGraphic" in2="effect1_dropShadow_232_5187" result="shape"/>
</filter>
<filter id="filter1_d_232_5187" x="0" y="0" width="45" height="43" filterUnits="userSpaceOnUse" color-interpolation-filters="sRGB">
<feFlood flood-opacity="0" result="BackgroundImageFix"/>
<feColorMatrix in="SourceAlpha" type="matrix" values="0 0 0 0 0 0 0 0 0 0 0 0 0 0 0 0 0 0 127 0" result="hardAlpha"/>
<feOffset dx="3" dy="3"/>
<feComposite in2="hardAlpha" operator="out"/>
<feColorMatrix type="matrix" values="0 0 0 0 0.117647 0 0 0 0 0.117647 0 0 0 0 0.117647 0 0 0 1 0"/>
<feBlend mode="normal" in2="BackgroundImageFix" result="effect1_dropShadow_232_5187"/>
<feBlend mode="normal" in="SourceGraphic" in2="effect1_dropShadow_232_5187" result="shape"/>
</filter>
<filter id="filter2_d_232_5187" x="32" y="0" width="12" height="43" filterUnits="userSpaceOnUse" color-interpolation-filters="sRGB">
<feFlood flood-opacity="0" result="BackgroundImageFix"/>
<feColorMatrix in="SourceAlpha" type="matrix" values="0 0 0 0 0 0 0 0 0 0 0 0 0 0 0 0 0 0 127 0" result="hardAlpha"/>
<feOffset dx="3" dy="3"/>
<feComposite in2="hardAlpha" operator="out"/>
<feColorMatrix type="matrix" values="0 0 0 0 0.117647 0 0 0 0 0.117647 0 0 0 0 0.117647 0 0 0 1 0"/>
<feBlend mode="normal" in2="BackgroundImageFix" result="effect1_dropShadow_232_5187"/>
<feBlend mode="normal" in="SourceGraphic" in2="effect1_dropShadow_232_5187" result="shape"/>
</filter>
<clipPath id="clip0_232_5187">
<rect width="22" height="22" fill="white" transform="translate(10 9)"/>
</clipPath>
</defs>
</svg>
