<svg width="52" height="52" viewBox="0 0 52 52" fill="none" xmlns="http://www.w3.org/2000/svg">
<path d="M2.77375 34.4129C2.77375 29.5227 1 25.2845 1 20.3942C2.81652 15.0105 6.60141 12.5296 9.86873 8.12794C13.0143 3.89032 18.6862 1.8316 24.0587 1.11864C28.6373 0.511036 33.8643 2.39777 38.4041 3.14526C41.1803 3.60237 45.2184 7.64405 45.3437 8.12794C46.4777 12.5074 49.9965 17.2972 50.6649 21.7544C51.3972 26.6379 50.7073 30.8907 50.6649 35.8343C48.8911 41.4221 43.3184 48.122 36.4749 50.1838C30.5997 51.9539 23.3676 50.4844 17.5492 49.1759C12.9625 48.1444 7.45936 43.8439 4.54749 39.6699C3.051 37.5247 2.77375 36.8109 2.77375 34.4129Z" stroke="#441948" stroke-width="2" stroke-linecap="round" stroke-linejoin="round"/>
<g clip-path="url(#clip0_26_1174)">
<path d="M17.2472 25.2668C17.2472 24.5744 17.816 24.0056 18.5072 24.0056H20.6324C21.3248 24.0056 21.9176 24.5744 21.9176 25.292V33.3068C22.1648 33.2324 22.4612 33.158 22.808 33.0836C23.2772 32.96 23.624 32.54 23.624 32.0444V22.1C23.624 21.4076 24.1928 20.8136 24.9092 20.8136H27.0344C27.7268 20.8136 28.3196 21.3824 28.3196 22.1V31.328C28.3196 31.328 28.8392 31.1048 29.3576 30.8828C29.7536 30.71 30.0008 30.3392 30.0008 29.8928V18.8852C30.0008 18.1928 30.5696 17.5988 31.262 17.5988H33.3872C34.0796 17.5988 34.6484 18.1676 34.6484 18.8852V27.9644C36.4772 26.6288 38.3564 25.0208 39.8396 23.0912C40.2848 22.5224 40.4084 21.7796 40.1612 21.0872C37.442 13.2704 28.8908 9.1136 21.08 11.8352C13.2692 14.5568 9.11721 23.1152 11.8352 30.9332C12.1316 31.8236 12.5276 32.6648 12.9968 33.4808C13.3676 34.124 14.06 34.4948 14.8016 34.4204C15.1976 34.3952 15.692 34.346 16.3088 34.2716C16.8524 34.2224 17.2484 33.752 17.2484 33.2072L17.2472 25.2668Z" fill="#441948"/>
<path d="M17.1968 38.1308C23.8952 43.004 33.2636 41.5196 38.132 34.8164C39.986 32.2436 40.9988 29.1512 40.9988 25.9856C40.9988 25.6388 40.9736 25.2932 40.9496 24.9464C35.4884 33.134 25.3784 36.968 17.1968 38.1308Z" fill="#441948"/>
</g>
<defs>
<clipPath id="clip0_26_1174">
<rect width="30" height="30" fill="white" transform="translate(11 11)"/>
</clipPath>
</defs>
</svg>
