<svg width="279" height="81" viewBox="0 0 279 81" fill="none" xmlns="http://www.w3.org/2000/svg">
<path d="M132.028 27.78C132.94 28.62 133.612 29.628 134.044 30.804C134.476 31.956 134.644 33.108 134.548 34.26C134.452 35.364 134.104 36.384 133.504 37.32C132.904 38.232 131.992 38.928 130.768 39.408C129.808 39.816 128.86 40.104 127.924 40.272C126.988 40.44 125.956 40.572 124.828 40.668C124.324 40.716 123.892 40.752 123.532 40.776C123.196 40.776 122.8 40.788 122.344 40.812C122.248 40.812 122.08 40.812 121.84 40.812C121.624 40.812 121.468 40.824 121.372 40.848V48.3C121.3 48.756 121.204 49.224 121.084 49.704C120.988 50.184 120.712 50.556 120.256 50.82C119.992 50.964 119.668 51.048 119.284 51.072C118.9 51.096 118.552 51.084 118.24 51.036C117.904 50.988 117.616 50.904 117.376 50.784C117.16 50.64 116.98 50.4 116.836 50.064C116.74 49.848 116.644 49.608 116.548 49.344C116.476 49.056 116.44 48.708 116.44 48.3V28.392C116.44 28.224 116.452 28.068 116.476 27.924C116.5 27.78 116.524 27.636 116.548 27.492C116.596 27.372 116.632 27.24 116.656 27.096C116.68 26.952 116.716 26.82 116.764 26.7C116.812 26.58 116.86 26.472 116.908 26.376C116.98 26.28 117.064 26.196 117.16 26.124C117.28 26.004 117.46 25.896 117.7 25.8C117.964 25.704 118.348 25.656 118.852 25.656H118.924C119.668 25.608 120.496 25.572 121.408 25.548C122.32 25.5 123.076 25.512 123.676 25.584C124.012 25.632 124.324 25.668 124.612 25.692C124.9 25.692 125.176 25.704 125.44 25.728C125.728 25.752 126.016 25.776 126.304 25.8C126.592 25.824 126.88 25.86 127.168 25.908C127.408 25.956 127.624 25.992 127.816 26.016C128.032 26.04 128.248 26.076 128.464 26.124C128.656 26.172 128.86 26.22 129.076 26.268C129.316 26.316 129.532 26.4 129.724 26.52C130.228 26.664 130.648 26.844 130.984 27.06C131.32 27.276 131.668 27.516 132.028 27.78ZM129.868 33.72C129.892 33.144 129.772 32.64 129.508 32.208C129.268 31.776 128.92 31.416 128.464 31.128C128.008 30.84 127.492 30.612 126.916 30.444C126.34 30.276 125.764 30.156 125.188 30.084C125.044 30.084 124.84 30.084 124.576 30.084C124.336 30.06 124.072 30.048 123.784 30.048C123.496 30.024 123.22 30.012 122.956 30.012C122.716 29.988 122.524 29.976 122.38 29.976C122.26 29.952 122.116 29.94 121.948 29.94C121.78 29.94 121.588 29.94 121.372 29.94C121.396 30.684 121.408 31.404 121.408 32.1C121.408 32.772 121.408 33.504 121.408 34.296C121.384 34.728 121.372 35.16 121.372 35.592C121.372 36.024 121.372 36.444 121.372 36.852L123.604 36.816C124.18 36.816 124.816 36.78 125.512 36.708C126.208 36.636 126.868 36.492 127.492 36.276C128.116 36.06 128.644 35.748 129.076 35.34C129.532 34.932 129.796 34.392 129.868 33.72ZM142.431 29.832L142.359 35.484H143.799C144.783 35.46 145.659 35.448 146.427 35.448C147.195 35.448 148.047 35.46 148.983 35.484H149.163C149.451 35.484 149.727 35.496 149.991 35.52C150.279 35.52 150.555 35.52 150.819 35.52C151.107 35.544 151.383 35.592 151.647 35.664C151.911 35.712 152.175 35.772 152.439 35.844C152.847 35.988 153.183 36.204 153.447 36.492C153.687 36.804 153.807 37.152 153.807 37.536C153.807 37.656 153.807 37.8 153.807 37.968C153.807 38.112 153.783 38.244 153.735 38.364C153.687 38.628 153.531 38.868 153.267 39.084C153.147 39.252 152.919 39.372 152.583 39.444C152.271 39.54 151.959 39.6 151.647 39.624C151.311 39.696 150.975 39.732 150.639 39.732H148.947L142.287 39.768L142.215 46.824L149.379 46.896H151.071C151.263 46.896 151.443 46.896 151.611 46.896C151.779 46.896 151.935 46.908 152.079 46.932C152.271 46.98 152.439 47.016 152.583 47.04C152.751 47.04 152.907 47.064 153.051 47.112C153.339 47.208 153.579 47.34 153.771 47.508C154.011 47.748 154.167 48 154.239 48.264C154.263 48.384 154.275 48.516 154.275 48.66C154.299 48.78 154.299 48.912 154.275 49.056C154.275 49.44 154.155 49.788 153.915 50.1C153.627 50.436 153.291 50.652 152.907 50.748C152.403 50.964 151.851 51.072 151.251 51.072C150.987 51.096 150.711 51.108 150.423 51.108C150.135 51.108 149.859 51.12 149.595 51.144H149.379C147.507 51.192 145.563 51.192 143.547 51.144C143.067 51.144 142.683 51.132 142.395 51.108C142.107 51.108 141.843 51.108 141.603 51.108C141.387 51.108 141.159 51.108 140.919 51.108C140.679 51.108 140.367 51.108 139.983 51.108C139.431 51.156 138.975 51.06 138.615 50.82C138.351 50.652 138.147 50.424 138.003 50.136C137.931 50.064 137.895 49.992 137.895 49.92C137.871 49.872 137.847 49.836 137.823 49.812C137.799 49.788 137.775 49.752 137.751 49.704C137.703 49.584 137.667 49.464 137.643 49.344C137.619 49.2 137.607 49.068 137.607 48.948C137.583 48.828 137.559 48.708 137.535 48.588C137.535 48.468 137.523 48.348 137.499 48.228V47.652C137.499 47.556 137.499 47.46 137.499 47.364C137.523 47.268 137.535 47.172 137.535 47.076V44.268L137.607 39.084V34.296C137.607 33.432 137.607 32.664 137.607 31.992C137.631 31.32 137.655 30.588 137.679 29.796V29.616C137.703 29.352 137.715 29.112 137.715 28.896C137.739 28.656 137.751 28.416 137.751 28.176C137.775 27.696 137.907 27.228 138.147 26.772C138.243 26.58 138.339 26.412 138.435 26.268C138.555 26.124 138.711 26.004 138.903 25.908C139.263 25.692 139.635 25.584 140.019 25.584C140.211 25.584 140.355 25.596 140.451 25.62V25.584C140.883 25.584 141.231 25.584 141.495 25.584C141.759 25.584 142.011 25.584 142.251 25.584C142.515 25.584 142.791 25.584 143.079 25.584C143.367 25.56 143.763 25.548 144.267 25.548C145.227 25.524 146.139 25.512 147.003 25.512C147.867 25.512 148.755 25.524 149.667 25.548H149.811C150.075 25.572 150.351 25.584 150.639 25.584C150.927 25.584 151.203 25.596 151.467 25.62C151.731 25.62 151.995 25.656 152.259 25.728C152.523 25.776 152.787 25.848 153.051 25.944C153.459 26.064 153.795 26.268 154.059 26.556C154.275 26.892 154.383 27.228 154.383 27.564C154.383 27.708 154.383 27.852 154.383 27.996C154.383 28.116 154.359 28.236 154.311 28.356C154.287 28.596 154.143 28.848 153.879 29.112C153.783 29.16 153.675 29.22 153.555 29.292C153.459 29.364 153.339 29.424 153.195 29.472C153.051 29.52 152.895 29.556 152.727 29.58C152.583 29.58 152.439 29.592 152.295 29.616C152.103 29.664 151.923 29.688 151.755 29.688C151.611 29.688 151.443 29.688 151.251 29.688H149.631L142.431 29.724V29.832ZM172.844 27.78C173.756 28.62 174.428 29.628 174.86 30.804C175.292 31.956 175.46 33.108 175.364 34.26C175.268 35.364 174.92 36.384 174.32 37.32C173.72 38.232 172.808 38.928 171.584 39.408C170.624 39.816 169.676 40.104 168.74 40.272C167.804 40.44 166.772 40.572 165.644 40.668C165.14 40.716 164.708 40.752 164.348 40.776C164.012 40.776 163.616 40.788 163.16 40.812C163.064 40.812 162.896 40.812 162.656 40.812C162.44 40.812 162.284 40.824 162.188 40.848V48.3C162.116 48.756 162.02 49.224 161.9 49.704C161.804 50.184 161.528 50.556 161.072 50.82C160.808 50.964 160.484 51.048 160.1 51.072C159.716 51.096 159.368 51.084 159.056 51.036C158.72 50.988 158.432 50.904 158.192 50.784C157.976 50.64 157.796 50.4 157.652 50.064C157.556 49.848 157.46 49.608 157.364 49.344C157.292 49.056 157.256 48.708 157.256 48.3V28.392C157.256 28.224 157.268 28.068 157.292 27.924C157.316 27.78 157.34 27.636 157.364 27.492C157.412 27.372 157.448 27.24 157.472 27.096C157.496 26.952 157.532 26.82 157.58 26.7C157.628 26.58 157.676 26.472 157.724 26.376C157.796 26.28 157.88 26.196 157.976 26.124C158.096 26.004 158.276 25.896 158.516 25.8C158.78 25.704 159.164 25.656 159.668 25.656H159.74C160.484 25.608 161.312 25.572 162.224 25.548C163.136 25.5 163.892 25.512 164.492 25.584C164.828 25.632 165.14 25.668 165.428 25.692C165.716 25.692 165.992 25.704 166.256 25.728C166.544 25.752 166.832 25.776 167.12 25.8C167.408 25.824 167.696 25.86 167.984 25.908C168.224 25.956 168.44 25.992 168.632 26.016C168.848 26.04 169.064 26.076 169.28 26.124C169.472 26.172 169.676 26.22 169.892 26.268C170.132 26.316 170.348 26.4 170.54 26.52C171.044 26.664 171.464 26.844 171.8 27.06C172.136 27.276 172.484 27.516 172.844 27.78ZM170.684 33.72C170.708 33.144 170.588 32.64 170.324 32.208C170.084 31.776 169.736 31.416 169.28 31.128C168.824 30.84 168.308 30.612 167.732 30.444C167.156 30.276 166.58 30.156 166.004 30.084C165.86 30.084 165.656 30.084 165.392 30.084C165.152 30.06 164.888 30.048 164.6 30.048C164.312 30.024 164.036 30.012 163.772 30.012C163.532 29.988 163.34 29.976 163.196 29.976C163.076 29.952 162.932 29.94 162.764 29.94C162.596 29.94 162.404 29.94 162.188 29.94C162.212 30.684 162.224 31.404 162.224 32.1C162.224 32.772 162.224 33.504 162.224 34.296C162.2 34.728 162.188 35.16 162.188 35.592C162.188 36.024 162.188 36.444 162.188 36.852L164.42 36.816C164.996 36.816 165.632 36.78 166.328 36.708C167.024 36.636 167.684 36.492 168.308 36.276C168.932 36.06 169.46 35.748 169.892 35.34C170.348 34.932 170.612 34.392 170.684 33.72ZM183.247 29.832L183.175 35.484H184.615C185.599 35.46 186.475 35.448 187.243 35.448C188.011 35.448 188.863 35.46 189.799 35.484H189.979C190.267 35.484 190.543 35.496 190.807 35.52C191.095 35.52 191.371 35.52 191.635 35.52C191.923 35.544 192.199 35.592 192.463 35.664C192.727 35.712 192.991 35.772 193.255 35.844C193.663 35.988 193.999 36.204 194.263 36.492C194.503 36.804 194.623 37.152 194.623 37.536C194.623 37.656 194.623 37.8 194.623 37.968C194.623 38.112 194.599 38.244 194.551 38.364C194.503 38.628 194.347 38.868 194.083 39.084C193.963 39.252 193.735 39.372 193.399 39.444C193.087 39.54 192.775 39.6 192.463 39.624C192.127 39.696 191.791 39.732 191.455 39.732H189.763L183.103 39.768L183.031 46.824L190.195 46.896H191.887C192.079 46.896 192.259 46.896 192.427 46.896C192.595 46.896 192.751 46.908 192.895 46.932C193.087 46.98 193.255 47.016 193.399 47.04C193.567 47.04 193.723 47.064 193.867 47.112C194.155 47.208 194.395 47.34 194.587 47.508C194.827 47.748 194.983 48 195.055 48.264C195.079 48.384 195.091 48.516 195.091 48.66C195.115 48.78 195.115 48.912 195.091 49.056C195.091 49.44 194.971 49.788 194.731 50.1C194.443 50.436 194.107 50.652 193.723 50.748C193.219 50.964 192.667 51.072 192.067 51.072C191.803 51.096 191.527 51.108 191.239 51.108C190.951 51.108 190.675 51.12 190.411 51.144H190.195C188.323 51.192 186.379 51.192 184.363 51.144C183.883 51.144 183.499 51.132 183.211 51.108C182.923 51.108 182.659 51.108 182.419 51.108C182.203 51.108 181.975 51.108 181.735 51.108C181.495 51.108 181.183 51.108 180.799 51.108C180.247 51.156 179.791 51.06 179.431 50.82C179.167 50.652 178.963 50.424 178.819 50.136C178.747 50.064 178.711 49.992 178.711 49.92C178.687 49.872 178.663 49.836 178.639 49.812C178.615 49.788 178.591 49.752 178.567 49.704C178.519 49.584 178.483 49.464 178.459 49.344C178.435 49.2 178.423 49.068 178.423 48.948C178.399 48.828 178.375 48.708 178.351 48.588C178.351 48.468 178.339 48.348 178.315 48.228V47.652C178.315 47.556 178.315 47.46 178.315 47.364C178.339 47.268 178.351 47.172 178.351 47.076V44.268L178.423 39.084V34.296C178.423 33.432 178.423 32.664 178.423 31.992C178.447 31.32 178.471 30.588 178.495 29.796V29.616C178.519 29.352 178.531 29.112 178.531 28.896C178.555 28.656 178.567 28.416 178.567 28.176C178.591 27.696 178.723 27.228 178.963 26.772C179.059 26.58 179.155 26.412 179.251 26.268C179.371 26.124 179.527 26.004 179.719 25.908C180.079 25.692 180.451 25.584 180.835 25.584C181.027 25.584 181.171 25.596 181.267 25.62V25.584C181.699 25.584 182.047 25.584 182.311 25.584C182.575 25.584 182.827 25.584 183.067 25.584C183.331 25.584 183.607 25.584 183.895 25.584C184.183 25.56 184.579 25.548 185.083 25.548C186.043 25.524 186.955 25.512 187.819 25.512C188.683 25.512 189.571 25.524 190.483 25.548H190.627C190.891 25.572 191.167 25.584 191.455 25.584C191.743 25.584 192.019 25.596 192.283 25.62C192.547 25.62 192.811 25.656 193.075 25.728C193.339 25.776 193.603 25.848 193.867 25.944C194.275 26.064 194.611 26.268 194.875 26.556C195.091 26.892 195.199 27.228 195.199 27.564C195.199 27.708 195.199 27.852 195.199 27.996C195.199 28.116 195.175 28.236 195.127 28.356C195.103 28.596 194.959 28.848 194.695 29.112C194.599 29.16 194.491 29.22 194.371 29.292C194.275 29.364 194.155 29.424 194.011 29.472C193.867 29.52 193.711 29.556 193.543 29.58C193.399 29.58 193.255 29.592 193.111 29.616C192.919 29.664 192.739 29.688 192.571 29.688C192.427 29.688 192.259 29.688 192.067 29.688H190.447L183.247 29.724V29.832ZM227.08 27.492C227.224 28.644 227.308 29.988 227.332 31.524C227.356 33.036 227.332 34.572 227.26 36.132C227.212 37.668 227.104 39.132 226.936 40.524C226.768 41.892 226.564 42.996 226.324 43.836C226.156 44.34 225.952 44.868 225.712 45.42C225.496 45.948 225.256 46.428 224.992 46.86C224.608 47.508 224.14 48.084 223.588 48.588C223.036 49.068 222.424 49.488 221.752 49.848C221.104 50.184 220.408 50.448 219.664 50.64C218.944 50.832 218.224 50.94 217.504 50.964C216.232 51.012 215.02 50.832 213.868 50.424C212.74 49.992 211.696 49.32 210.736 48.408C210.016 47.712 209.44 46.968 209.008 46.176C208.576 45.384 208.24 44.556 208 43.692C207.76 42.804 207.604 41.892 207.532 40.956C207.484 40.02 207.46 39.06 207.46 38.076C207.46 37.62 207.448 37.056 207.424 36.384C207.424 35.688 207.424 34.98 207.424 34.26C207.424 33.516 207.424 32.796 207.424 32.1C207.424 31.404 207.436 30.816 207.46 30.336C207.46 30.024 207.46 29.688 207.46 29.328C207.46 28.944 207.472 28.572 207.496 28.212C207.544 27.828 207.616 27.468 207.712 27.132C207.808 26.772 207.952 26.448 208.144 26.16C208.36 25.848 208.66 25.62 209.044 25.476C209.428 25.332 209.824 25.26 210.232 25.26C210.664 25.26 211.072 25.344 211.456 25.512C211.84 25.68 212.152 25.92 212.392 26.232C212.512 26.424 212.596 26.616 212.644 26.808C212.692 27 212.728 27.216 212.752 27.456C212.8 28.248 212.824 29.148 212.824 30.156C212.848 31.164 212.848 32.148 212.824 33.108C212.824 34.044 212.812 34.908 212.788 35.7C212.764 36.492 212.752 37.08 212.752 37.464C212.752 38.904 212.824 40.212 212.968 41.388C213.112 42.54 213.448 43.5 213.976 44.268C214.456 44.964 215.02 45.408 215.668 45.6C216.316 45.792 216.964 45.852 217.612 45.78C218.212 45.708 218.812 45.492 219.412 45.132C220.036 44.748 220.528 44.196 220.888 43.476C221.032 43.212 221.152 42.912 221.248 42.576C221.344 42.24 221.416 41.928 221.464 41.64C221.56 40.728 221.644 39.672 221.716 38.472C221.788 37.248 221.848 36 221.896 34.728C221.944 33.456 221.968 32.208 221.968 30.984C221.968 29.76 221.956 28.656 221.932 27.672C221.98 27.24 222.112 26.844 222.328 26.484C222.52 26.172 222.796 25.896 223.156 25.656C223.516 25.416 224.008 25.296 224.632 25.296C225.136 25.32 225.544 25.452 225.856 25.692C226.168 25.908 226.42 26.148 226.612 26.412C226.828 26.724 226.984 27.084 227.08 27.492ZM255.945 26.952C256.041 27.408 256.041 27.888 255.945 28.392C255.897 28.632 255.849 28.872 255.801 29.112C255.777 29.328 255.741 29.556 255.693 29.796L255.657 29.94C255.321 31.428 254.937 33 254.505 34.656C254.097 36.288 253.725 37.836 253.389 39.3C253.101 40.5 252.801 41.82 252.489 43.26C252.177 44.7 251.853 46.02 251.517 47.22C251.397 47.628 251.265 48.036 251.121 48.444C251.001 48.852 250.845 49.26 250.653 49.668C250.485 50.028 250.281 50.352 250.041 50.64C249.825 50.904 249.573 51.096 249.285 51.216C248.997 51.36 248.685 51.408 248.349 51.36C248.037 51.336 247.689 51.192 247.305 50.928C246.729 50.52 246.297 49.956 246.009 49.236C245.745 48.516 245.469 47.856 245.181 47.256C245.085 47.088 244.941 46.716 244.749 46.14C244.557 45.564 244.353 44.94 244.137 44.268C243.921 43.572 243.705 42.912 243.489 42.288C243.297 41.64 243.129 41.16 242.985 40.848C242.769 41.376 242.553 41.976 242.337 42.648C242.121 43.32 241.917 43.98 241.725 44.628C241.533 45.276 241.353 45.864 241.185 46.392C241.041 46.896 240.933 47.268 240.861 47.508C240.669 47.988 240.453 48.516 240.213 49.092C239.997 49.668 239.721 50.16 239.385 50.568C239.073 50.976 238.689 51.24 238.233 51.36C237.777 51.504 237.237 51.372 236.613 50.964C236.133 50.676 235.797 50.268 235.605 49.74C235.485 49.404 235.365 49.08 235.245 48.768C235.125 48.456 235.029 48.132 234.957 47.796L234.237 45.096L232.761 39.3C232.569 38.556 232.377 37.8 232.185 37.032C232.017 36.24 231.813 35.424 231.573 34.584C231.453 34.176 231.345 33.78 231.249 33.396C231.177 32.988 231.093 32.556 230.997 32.1C230.925 31.62 230.829 31.08 230.709 30.48C230.613 29.88 230.493 29.184 230.349 28.392C230.301 28.128 230.265 27.888 230.241 27.672C230.241 27.432 230.265 27.192 230.313 26.952C230.361 26.592 230.529 26.28 230.817 26.016C230.937 25.896 231.081 25.8 231.249 25.728C231.417 25.656 231.597 25.596 231.789 25.548C232.077 25.452 232.377 25.404 232.689 25.404C232.977 25.404 233.277 25.5 233.589 25.692C233.805 25.812 233.973 25.968 234.093 26.16L234.525 26.916C234.573 27.084 234.621 27.24 234.669 27.384C234.717 27.504 234.765 27.636 234.813 27.78C234.861 27.948 234.897 28.104 234.921 28.248C234.945 28.368 234.969 28.488 234.993 28.608C235.209 29.856 235.473 31.068 235.785 32.244C236.097 33.42 236.385 34.548 236.649 35.628C236.745 36.06 236.865 36.6 237.009 37.248C237.153 37.872 237.297 38.532 237.441 39.228C237.585 39.9 237.729 40.548 237.873 41.172C238.017 41.796 238.161 42.288 238.305 42.648C238.617 41.568 238.929 40.488 239.241 39.408C239.577 38.328 239.937 37.236 240.321 36.132C240.513 35.556 240.705 35.04 240.897 34.584C241.113 34.104 241.353 33.708 241.617 33.396C241.881 33.084 242.181 32.88 242.517 32.784C242.853 32.688 243.249 32.724 243.705 32.892C244.113 33.06 244.473 33.42 244.785 33.972C245.097 34.524 245.373 35.088 245.613 35.664C245.829 36.192 246.033 36.756 246.225 37.356C246.441 37.932 246.645 38.508 246.837 39.084C247.053 39.636 247.257 40.164 247.449 40.668C247.641 41.172 247.833 41.604 248.025 41.964C248.097 41.7 248.181 41.364 248.277 40.956C248.373 40.548 248.469 40.116 248.565 39.66C248.685 39.18 248.793 38.712 248.889 38.256C248.985 37.8 249.081 37.38 249.177 36.996C249.489 35.7 249.813 34.404 250.149 33.108C250.485 31.788 250.809 30.492 251.121 29.22L251.301 28.608C251.349 28.488 251.373 28.368 251.373 28.248C251.397 28.104 251.433 27.948 251.481 27.78C251.529 27.636 251.577 27.504 251.625 27.384C251.673 27.24 251.721 27.084 251.769 26.916C251.817 26.796 251.865 26.676 251.913 26.556C251.985 26.412 252.069 26.28 252.165 26.16C252.237 26.04 252.321 25.944 252.417 25.872C252.513 25.8 252.609 25.74 252.705 25.692C253.041 25.5 253.329 25.404 253.569 25.404C253.881 25.404 254.181 25.452 254.469 25.548C254.853 25.62 255.201 25.776 255.513 26.016C255.753 26.256 255.897 26.568 255.945 26.952ZM278.584 27.492C278.728 28.644 278.812 29.988 278.836 31.524C278.86 33.036 278.836 34.572 278.764 36.132C278.716 37.668 278.608 39.132 278.44 40.524C278.272 41.892 278.068 42.996 277.828 43.836C277.66 44.34 277.456 44.868 277.216 45.42C277 45.948 276.76 46.428 276.496 46.86C276.112 47.508 275.644 48.084 275.092 48.588C274.54 49.068 273.928 49.488 273.256 49.848C272.608 50.184 271.912 50.448 271.168 50.64C270.448 50.832 269.728 50.94 269.008 50.964C267.736 51.012 266.524 50.832 265.372 50.424C264.244 49.992 263.2 49.32 262.24 48.408C261.52 47.712 260.944 46.968 260.512 46.176C260.08 45.384 259.744 44.556 259.504 43.692C259.264 42.804 259.108 41.892 259.036 40.956C258.988 40.02 258.964 39.06 258.964 38.076C258.964 37.62 258.952 37.056 258.928 36.384C258.928 35.688 258.928 34.98 258.928 34.26C258.928 33.516 258.928 32.796 258.928 32.1C258.928 31.404 258.94 30.816 258.964 30.336C258.964 30.024 258.964 29.688 258.964 29.328C258.964 28.944 258.976 28.572 259 28.212C259.048 27.828 259.12 27.468 259.216 27.132C259.312 26.772 259.456 26.448 259.648 26.16C259.864 25.848 260.164 25.62 260.548 25.476C260.932 25.332 261.328 25.26 261.736 25.26C262.168 25.26 262.576 25.344 262.96 25.512C263.344 25.68 263.656 25.92 263.896 26.232C264.016 26.424 264.1 26.616 264.148 26.808C264.196 27 264.232 27.216 264.256 27.456C264.304 28.248 264.328 29.148 264.328 30.156C264.352 31.164 264.352 32.148 264.328 33.108C264.328 34.044 264.316 34.908 264.292 35.7C264.268 36.492 264.256 37.08 264.256 37.464C264.256 38.904 264.328 40.212 264.472 41.388C264.616 42.54 264.952 43.5 265.48 44.268C265.96 44.964 266.524 45.408 267.172 45.6C267.82 45.792 268.468 45.852 269.116 45.78C269.716 45.708 270.316 45.492 270.916 45.132C271.54 44.748 272.032 44.196 272.392 43.476C272.536 43.212 272.656 42.912 272.752 42.576C272.848 42.24 272.92 41.928 272.968 41.64C273.064 40.728 273.148 39.672 273.22 38.472C273.292 37.248 273.352 36 273.4 34.728C273.448 33.456 273.472 32.208 273.472 30.984C273.472 29.76 273.46 28.656 273.436 27.672C273.484 27.24 273.616 26.844 273.832 26.484C274.024 26.172 274.3 25.896 274.66 25.656C275.02 25.416 275.512 25.296 276.136 25.296C276.64 25.32 277.048 25.452 277.36 25.692C277.672 25.908 277.924 26.148 278.116 26.412C278.332 26.724 278.488 27.084 278.584 27.492Z" fill="#441948"/>
<g clip-path="url(#clip0_26_1539)">
<path d="M99.9052 42.6438C99.7668 41.7579 99.4622 40.9366 99.0193 40.2168C99.1854 39.1002 99.0008 37.9743 98.484 36.9684C97.9026 35.8518 96.9521 34.9567 95.8078 34.4307C95.2818 34.1907 94.7097 34.0338 94.1283 33.96C93.6853 33.2402 93.2055 32.5389 92.6979 31.8652C93.3162 29.9273 93.6207 27.9063 93.6207 25.8484C93.6207 24.215 93.4177 22.5816 93.0209 21.0035C93.0024 20.9389 92.9932 20.8743 92.9748 20.8097C92.4487 18.798 91.6182 16.897 90.5016 15.1436C88.6928 12.3197 86.2012 9.98498 83.2759 8.37926C79.5384 3.12838 73.5031 0 67.0433 0C64.524 0 62.0508 0.47987 59.6884 1.42115C57.8428 2.15941 56.1355 3.14684 54.6036 4.3742C52.9426 3.12838 51.1154 2.1225 49.1682 1.39347C46.7042 0.470641 44.1111 0 41.4626 0C36.5439 0 31.736 1.49498 27.5464 4.32806C23.4398 7.09654 20.0253 11.1385 17.626 16.048C12.6981 18.1335 8.46232 21.5388 5.34316 25.9314C1.84565 30.8409 0 36.627 0 42.6807C0 50.2571 2.9069 57.4183 8.1947 62.8445L8.21315 62.8629C9.44974 64.1272 10.7694 65.3084 12.2644 66.4712C19.3886 72.082 27.3895 76.087 36.0456 78.3664C41.7764 79.8799 47.8301 80.6458 54.0315 80.6458C55.2773 80.6458 56.5323 80.6181 57.7874 80.5535C70.5778 79.926 79.8337 76.2162 79.926 76.1793H79.9352H79.9445H79.9537C85.343 74.1122 89.9387 70.5039 93.2516 65.7606C96.6476 60.8973 98.4471 55.1666 98.4471 49.1866C98.4471 49.0298 98.4471 48.8729 98.4471 48.716C99.6837 46.9719 100.237 44.7109 99.9052 42.6438Z" fill="white"/>
<path d="M98.0873 42.9391C97.9396 42.0347 97.5705 41.2319 97.026 40.6136L97.0629 40.5213C97.6997 38.5188 96.5277 36.7838 95.0419 36.1102C94.4144 35.8241 93.7315 35.7134 93.0671 35.7872C92.3473 34.5322 91.5352 33.3232 90.6308 32.2066C91.3968 30.1764 91.7844 28.0447 91.7844 25.8484C91.7844 24.3534 91.5998 22.8676 91.2399 21.428C91.2307 21.3819 91.2214 21.345 91.2122 21.3081C90.7416 19.4809 89.9848 17.7367 88.9605 16.1495C87.2441 13.464 84.8539 11.2769 82.0209 9.80963C78.6433 4.81714 73.0602 1.84564 67.0342 1.84564C62.4385 1.84564 57.972 3.63593 54.6314 6.77354C50.9862 3.58978 46.3444 1.84564 41.4626 1.84564C36.9131 1.84564 32.4651 3.22988 28.58 5.85071C24.5657 8.56382 21.2527 12.5781 18.9826 17.4783C14.1008 19.407 9.91121 22.6923 6.84742 26.9927C3.57139 31.5883 1.8457 37.0146 1.8457 42.6807C1.8457 49.7772 4.56804 56.4862 9.52362 61.571L9.54208 61.5894C10.7233 62.7983 11.9876 63.9242 13.4087 65.0408C20.3391 70.4855 28.1093 74.3798 36.5163 76.5946C42.0994 78.0711 47.987 78.8186 54.0315 78.8186C55.2404 78.8186 56.477 78.7909 57.6952 78.7263C70.181 78.1172 79.1416 74.5182 79.2339 74.4813L79.2708 74.4629C84.3279 72.5249 88.6375 69.1474 91.7475 64.6993C94.9312 60.1406 96.6107 54.779 96.6107 49.1866C96.6107 48.836 96.6015 48.4761 96.5923 48.1069C97.792 46.7227 98.3733 44.7294 98.0873 42.9391Z" fill="#441948"/>
<path d="M10.6957 60.4544C11.8307 61.6171 13.0396 62.6876 14.4054 63.7581C44.0189 87.0687 78.6157 72.9956 78.6157 72.9956L78.6618 72.9771C88.2408 69.3135 94.9958 60.0668 94.9958 49.1959C94.9958 42.8099 92.6426 36.9684 88.7575 32.4927C89.6619 30.4625 90.1602 28.2108 90.1602 25.8391C90.1602 19.3332 86.3859 13.7132 80.9043 11.0462C77.9789 6.48747 72.8665 3.4606 67.0434 3.4606C62.1248 3.4606 57.7044 5.62002 54.696 9.0437C51.3462 5.60156 46.6582 3.4606 41.4719 3.4606C33.3234 3.4606 24.7688 8.31467 20.1915 18.7518C10.428 22.3232 3.46069 31.6806 3.46069 42.6807C3.46069 49.5927 6.21072 55.8587 10.6772 60.4451C10.6772 60.4451 10.6864 60.4544 10.6957 60.4544Z" fill="#C5FFF9"/>
<path d="M54.0316 77.8957C48.0609 77.8957 42.2655 77.1575 36.7562 75.7086C28.4693 73.5215 20.8098 69.6826 13.9809 64.3117C12.5874 63.2228 11.3508 62.1246 10.1973 60.9434C10.1881 60.9342 10.1881 60.9342 10.1789 60.925C5.39861 56.0155 2.76855 49.5373 2.76855 42.6807C2.76855 37.2083 4.43887 31.9759 7.59494 27.5279C10.631 23.2644 14.793 20.0437 19.6655 18.1981C21.8711 13.2979 25.1286 9.29282 29.0968 6.61662C32.825 4.0973 37.0977 2.76843 41.4627 2.76843C46.4275 2.76843 51.0877 4.64177 54.6683 8.047C57.8982 4.67868 62.3647 2.76843 67.0434 2.76843C72.848 2.76843 78.1912 5.65688 81.3749 10.5109C84.1434 11.8952 86.4966 14.0085 88.1669 16.6293C89.9203 19.3793 90.8523 22.5631 90.8523 25.8391C90.8523 28.1 90.4186 30.2963 89.5604 32.3635C93.5101 37.0699 95.6879 43.0221 95.6879 49.1866C95.6879 54.5944 94.0638 59.7807 90.9908 64.1733C87.9823 68.4737 83.8112 71.7405 78.9202 73.6046L78.8833 73.623C78.791 73.66 69.978 77.1944 57.649 77.8035C56.4401 77.868 55.2312 77.8957 54.0316 77.8957ZM11.1755 59.9652L11.194 59.9837C12.3014 61.1187 13.4918 62.18 14.8391 63.2228C28.4785 73.9553 43.2068 76.5115 54.1423 76.5115C55.342 76.5115 56.4863 76.4838 57.5937 76.4284C69.6827 75.8378 78.2834 72.3865 78.3665 72.3588L78.4311 72.3311C88.0839 68.6398 94.3129 59.5684 94.3129 49.1958C94.3129 43.2251 92.1535 37.4575 88.2407 32.9541L87.9547 32.6219L88.13 32.2158C89.0159 30.2041 89.4681 28.0631 89.4681 25.8483C89.4681 19.7669 86.0721 14.3407 80.5997 11.6737L80.4244 11.5907L80.3229 11.4245C77.3975 6.86578 72.4327 4.15267 67.0342 4.15267C62.5123 4.15267 58.1935 6.09984 55.2036 9.50507L54.7052 10.068L54.1792 9.53275C50.8201 6.06292 46.2983 4.15267 41.4627 4.15267C32.622 4.15267 24.9072 9.71732 20.819 19.0286L20.6991 19.2963L20.4222 19.3978C10.6864 22.9599 4.15279 32.3173 4.15279 42.6807C4.15279 49.1681 6.64443 55.3049 11.1755 59.9652Z" fill="#441948"/>
<path d="M59.4301 18.3735C59.1163 18.3735 58.8302 18.1612 58.7564 17.8382C58.0274 14.7191 56.4493 11.8399 54.1976 9.52357C53.93 9.24672 53.9392 8.81299 54.2069 8.54537C54.4837 8.27775 54.9174 8.28698 55.185 8.5546C57.6121 11.0462 59.3101 14.1469 60.1037 17.5152C60.1868 17.8844 59.9561 18.2627 59.5869 18.3458C59.5316 18.3642 59.4762 18.3735 59.4301 18.3735Z" fill="#441948"/>
<path d="M17.5522 28.3492C17.5153 28.3492 17.4692 28.3492 17.4323 28.34C17.1 28.2846 16.8601 27.9893 16.8601 27.6571C16.8601 27.6202 16.8601 27.5741 16.8693 27.5371C17.4415 24.2611 18.3366 21.2158 19.5455 18.4658C19.7024 18.1151 20.1085 17.9582 20.4591 18.1059C20.7175 18.2166 20.8744 18.475 20.8744 18.7426C20.8744 18.8349 20.8559 18.9272 20.819 19.0195C19.6563 21.6587 18.7888 24.6118 18.2443 27.7679C18.1797 28.1185 17.8844 28.3492 17.5522 28.3492Z" fill="#441948"/>
<path d="M59.4853 18.9825L58.8578 18.0782C58.8394 18.0505 56.6061 14.876 52.1489 12.8181C46.169 10.068 39.2201 10.5202 31.4776 14.1654C31.1361 14.3315 30.7208 14.1838 30.5547 13.8332C30.3886 13.4917 30.5363 13.0764 30.887 12.9103C35.3534 10.8063 39.663 9.71736 43.6866 9.67122C46.9257 9.64354 49.9895 10.2803 52.7949 11.5815C56.2001 13.1595 58.3595 15.3097 59.3562 16.4632C60.7958 14.2669 62.7245 12.412 64.9854 11.0739C67.6154 9.51434 70.6331 8.69302 73.7061 8.69302C76.3269 8.69302 78.8555 9.2744 81.1995 10.4095C81.5409 10.5756 81.6885 10.9909 81.5224 11.3323C81.3563 11.6738 80.9411 11.8214 80.5996 11.6553C78.4494 10.6033 76.1331 10.0773 73.7153 10.0773C68.0769 10.0773 62.8352 13.1226 60.039 18.0136L59.4853 18.9825Z" fill="#441948"/>
<path d="M95.5126 40.0322C96.2047 37.8451 93.0394 36.2117 91.6736 38.4542C90.677 40.8812 87.041 43.4559 81.947 45.3477C75.9763 47.5717 68.3169 48.7898 60.3806 48.7898C52.2228 48.7898 44.3972 47.5071 38.3619 45.1723C36.221 44.351 33.8216 45.4123 32.9911 47.5532C32.1698 49.6942 33.231 52.0935 35.372 52.9241C42.3393 55.6095 51.2261 57.0953 60.3806 57.0953C69.2766 57.0953 77.9697 55.6833 84.8447 53.1363C89.0159 51.586 92.4119 49.6757 94.9404 47.4886C96.9983 45.7076 97.1368 41.9794 94.9958 41.0934C94.9958 41.0934 95.3649 40.3921 95.5126 40.0322Z" fill="#CE58AB"/>
<path d="M60.3713 57.7874C51.1338 57.7874 42.1639 56.2924 35.1136 53.5701C32.6219 52.6103 31.3761 49.7957 32.3358 47.3041C33.2956 44.8125 36.1102 43.5666 38.6018 44.5264C44.5633 46.8242 52.2966 48.0977 60.3713 48.0977C68.2246 48.0977 75.801 46.8888 81.6978 44.7017C86.5427 42.9022 90.1232 40.4014 91.0276 38.1958L91.0461 38.1497L91.0738 38.1035C91.9874 36.6085 93.5285 36.4517 94.6451 36.9592C95.7617 37.4668 96.6384 38.7587 96.1677 40.2537L96.1493 40.3091C96.0847 40.4567 95.9924 40.6597 95.9001 40.8443C96.5553 41.3519 97.0075 42.1363 97.1644 43.096C97.4505 44.8678 96.7399 46.8519 95.3833 48.0239C92.7717 50.2848 89.3019 52.2228 85.0754 53.8008C78.1265 56.3663 69.3504 57.7874 60.3713 57.7874ZM36.8669 45.5969C35.4735 45.5969 34.163 46.4366 33.637 47.8116C32.9541 49.5927 33.8401 51.5952 35.6211 52.2874C42.5146 54.9451 51.3092 56.4124 60.3805 56.4124C69.2028 56.4124 77.8035 55.0189 84.6047 52.4904C88.6836 50.9769 92.0058 49.1128 94.4882 46.9627C95.4756 46.1044 96.0201 44.6002 95.8078 43.3083C95.734 42.8561 95.4941 42.0532 94.7281 41.7395L94.0268 41.4441L94.3867 40.7705C94.479 40.5859 94.7558 40.0784 94.8666 39.8015C95.088 39.054 94.6359 38.4634 94.0822 38.2143C93.5469 37.9651 92.7994 37.9928 92.2919 38.7772C91.1753 41.398 87.5024 44.0281 82.1869 46.0029C76.1424 48.2546 68.3907 49.4912 60.3805 49.4912C52.1397 49.4912 44.2311 48.19 38.1127 45.8276C37.6975 45.6707 37.2822 45.5969 36.8669 45.5969Z" fill="#441948"/>
<path d="M60.3712 53.6347C51.632 53.6347 43.1882 52.232 36.6084 49.6942C36.2485 49.5558 36.0732 49.159 36.2116 48.7991C36.35 48.4391 36.7468 48.2638 37.1067 48.4022C43.5388 50.8846 51.7981 52.2504 60.3712 52.2504C68.3998 52.2504 75.9577 51.0969 82.2422 48.919C88.2406 46.8334 92.5594 43.9358 94.3958 40.7428C94.5896 40.4106 95.0141 40.2998 95.3371 40.4844C95.6693 40.6782 95.78 41.1027 95.5955 41.4257C91.452 48.6237 76.9728 53.6347 60.3712 53.6347Z" fill="#441948"/>
<path d="M26.5035 47.9316C26.3558 47.9316 26.199 47.8854 26.079 47.7839C25.7745 47.544 25.7283 47.1103 25.959 46.815C29.4473 42.3762 33.1755 42.2931 33.3324 42.2931C33.3324 42.2931 33.3324 42.2931 33.3416 42.2931C33.72 42.2931 34.0338 42.5977 34.0338 42.976C34.0338 43.3544 33.7292 43.6681 33.3509 43.6774C33.2124 43.6774 30.0933 43.7973 27.048 47.6732C26.9188 47.8393 26.7158 47.9316 26.5035 47.9316Z" fill="#441948"/>
<path d="M27.4171 42.6069C27.2049 42.6069 26.9926 42.5054 26.8542 42.3208C26.6327 42.0071 26.6973 41.5826 27.0111 41.3519C29.8626 39.2847 33.1387 39.9584 33.2771 39.9861C33.6462 40.0691 33.8862 40.4383 33.8123 40.8074C33.7293 41.1765 33.3694 41.4165 32.991 41.3426C32.9541 41.3334 30.1579 40.7797 27.8232 42.4777C27.7032 42.5608 27.5556 42.6069 27.4171 42.6069Z" fill="#441948"/>
<path d="M32.0406 24.8794C31.8653 24.8794 31.6992 24.8148 31.5607 24.6856C31.2839 24.418 31.2747 23.9843 31.5331 23.7074C31.7361 23.4952 36.6547 18.4104 44.8033 17.3492C49.0944 16.7862 52.8134 17.8752 55.1759 18.881C57.7413 19.97 59.2824 21.1973 59.347 21.2435C59.6423 21.4834 59.6977 21.9171 59.4578 22.2124C59.2178 22.5078 58.7841 22.5631 58.4888 22.3232C58.4334 22.277 52.5827 17.7183 44.9786 18.7149C37.3099 19.7208 32.5759 24.6118 32.5297 24.6579C32.4097 24.8056 32.2252 24.8794 32.0406 24.8794Z" fill="#441948"/>
<path d="M67.4586 23.0338C67.2371 23.0338 67.0249 22.9323 66.8864 22.7292C66.6742 22.4155 66.748 21.9817 67.0618 21.7695C67.3109 21.6034 73.1709 17.6537 81.3656 18.2997C84.3648 18.5396 87.2717 19.4993 90.0125 21.1789C90.3355 21.3819 90.4462 21.8064 90.2432 22.1294C90.0402 22.4524 89.6157 22.5631 89.2927 22.3601C86.7364 20.8005 84.0418 19.9054 81.2549 19.6839C73.5677 19.0748 67.9016 22.8769 67.8462 22.9138C67.7262 22.9968 67.5878 23.0338 67.4586 23.0338Z" fill="#441948"/>
<path d="M38.6019 26.642C37.6329 26.642 36.424 26.5128 35.5196 25.9776C35.1874 25.7838 35.0859 25.3593 35.2797 25.0271C35.4735 24.6948 35.898 24.5933 36.2302 24.7871C37.3284 25.4331 39.3678 25.267 40.0692 25.147C40.4475 25.0824 40.8074 25.3408 40.872 25.71C40.9366 26.0883 40.6874 26.4482 40.3091 26.5128C40.2445 26.522 39.5247 26.642 38.6019 26.642Z" fill="#441948"/>
<path d="M36.5347 29.8442C36.3317 29.8442 36.1287 29.7519 35.9902 29.5858C35.7503 29.2905 35.8057 28.8476 36.101 28.6169C37.9005 27.1865 40.4752 27.4356 40.5767 27.4449C40.955 27.4818 41.2319 27.8232 41.195 28.2016C41.1581 28.5799 40.8166 28.8568 40.4383 28.8199C40.4198 28.8199 38.3158 28.6261 36.9592 29.6966C36.8392 29.7888 36.6824 29.8442 36.5347 29.8442Z" fill="#441948"/>
<path d="M85.223 26.439C84.3002 26.439 83.5804 26.319 83.525 26.3098C83.1467 26.2452 82.8975 25.8853 82.9621 25.5069C83.0267 25.1286 83.3866 24.8794 83.765 24.944C84.4663 25.064 86.5057 25.2301 87.6039 24.5749C87.9361 24.3811 88.3606 24.4918 88.5544 24.8148C88.7482 25.147 88.6375 25.5715 88.3145 25.7653C87.4009 26.3098 86.2012 26.439 85.223 26.439Z" fill="#441948"/>
<path d="M87.2902 29.6412C87.1426 29.6412 86.9857 29.5951 86.8565 29.4936C85.5 28.4231 83.3959 28.6169 83.3775 28.6169C82.9991 28.6538 82.6576 28.3769 82.6207 27.9986C82.5838 27.6202 82.8607 27.2788 83.239 27.2419C83.3498 27.2326 85.9152 26.9835 87.7147 28.4139C88.01 28.6538 88.0654 29.0875 87.8255 29.3828C87.6963 29.5582 87.4933 29.6412 87.2902 29.6412Z" fill="#441948"/>
<path d="M78.0434 34.283C82.1105 34.283 85.4075 30.986 85.4075 26.9188C85.4075 22.8517 82.1105 19.5547 78.0434 19.5547C73.9762 19.5547 70.6792 22.8517 70.6792 26.9188C70.6792 30.986 73.9762 34.283 78.0434 34.283Z" fill="#441948"/>
<path d="M81.1164 30.4071C82.6148 30.4071 83.8295 29.1924 83.8295 27.694C83.8295 26.1956 82.6148 24.9809 81.1164 24.9809C79.618 24.9809 78.4033 26.1956 78.4033 27.694C78.4033 29.1924 79.618 30.4071 81.1164 30.4071Z" fill="white"/>
<path d="M76.1331 24.6026C76.9384 24.6026 77.5912 23.9498 77.5912 23.1445C77.5912 22.3392 76.9384 21.6864 76.1331 21.6864C75.3278 21.6864 74.675 22.3392 74.675 23.1445C74.675 23.9498 75.3278 24.6026 76.1331 24.6026Z" fill="white"/>
<path d="M47.4978 34.6798C51.9574 34.6798 55.5726 31.0646 55.5726 26.6051C55.5726 22.1455 51.9574 18.5304 47.4978 18.5304C43.0383 18.5304 39.4231 22.1455 39.4231 26.6051C39.4231 31.0646 43.0383 34.6798 47.4978 34.6798Z" fill="#441948"/>
<path d="M50.8755 30.4256C52.5217 30.4256 53.8562 29.0911 53.8562 27.4448C53.8562 25.7986 52.5217 24.4641 50.8755 24.4641C49.2293 24.4641 47.8948 25.7986 47.8948 27.4448C47.8948 29.0911 49.2293 30.4256 50.8755 30.4256Z" fill="white"/>
<path d="M45.4031 24.0581C46.2848 24.0581 46.9996 23.3433 46.9996 22.4616C46.9996 21.5799 46.2848 20.8651 45.4031 20.8651C44.5214 20.8651 43.8066 21.5799 43.8066 22.4616C43.8066 23.3433 44.5214 24.0581 45.4031 24.0581Z" fill="white"/>
<path d="M50.5618 42.2285C50.2388 42.2285 49.9527 41.9978 49.8881 41.6748C49.8143 41.2965 50.0542 40.9366 50.4326 40.8627C54.8806 39.9768 57.7783 38.0666 59.4209 36.6177C61.2019 35.0489 61.9402 33.6647 61.9494 33.6555C62.1248 33.314 62.5493 33.1848 62.8815 33.3694C63.2229 33.5447 63.3521 33.96 63.1768 34.3015C63.1399 34.3661 62.3462 35.8795 60.3899 37.6144C58.618 39.1924 55.4896 41.278 50.7002 42.2285C50.654 42.2193 50.6079 42.2285 50.5618 42.2285Z" fill="#441948"/>
<path d="M77.9051 40.4106C77.8405 40.4106 77.7851 40.4013 77.7205 40.3829C71.6022 38.6941 69.2398 34.4768 69.1475 34.2922C68.9629 33.96 69.0921 33.5355 69.4243 33.3509C69.7565 33.1664 70.181 33.2956 70.3656 33.6278C70.3933 33.6739 72.5712 37.5221 78.0989 39.0448C78.468 39.1463 78.6803 39.5246 78.5788 39.8938C78.4957 40.2075 78.2096 40.4106 77.9051 40.4106Z" fill="#441948"/>
<path d="M50.8648 36.1872C51.115 34.6737 47.5921 32.8308 42.9963 32.071C38.4004 31.3112 34.4718 31.9223 34.2216 33.4358C33.9714 34.9493 37.4943 36.7922 42.0902 37.552C46.6861 38.3118 50.6146 37.7007 50.8648 36.1872Z" fill="#FF8896"/>
<path d="M82.5099 36.7585C85.899 36.1982 88.4968 34.8391 88.3122 33.7228C88.1277 32.6065 85.2307 32.1558 81.8416 32.716C78.4525 33.2763 75.8547 34.6354 76.0392 35.7517C76.2238 36.868 79.1208 37.3188 82.5099 36.7585Z" fill="#FF8896"/>
</g>
<defs>
<clipPath id="clip0_26_1539">
<rect width="100" height="81" fill="white"/>
</clipPath>
</defs>
</svg>
