<svg width="52" height="52" viewBox="0 0 52 52" fill="none" xmlns="http://www.w3.org/2000/svg">
<path d="M49.2263 17.5871C49.2263 22.4773 51 26.7155 51 31.6058C49.1835 36.9895 45.3986 39.4704 42.1313 43.8721C38.9857 48.1097 33.3138 50.1684 27.9413 50.8814C23.3627 51.489 18.1357 49.6022 13.5959 48.8547C10.8197 48.3976 6.78164 44.3559 6.65634 43.8721C5.52233 39.4926 2.0035 34.7027 1.33511 30.2456C0.602782 25.3621 1.2927 21.1093 1.33511 16.1657C3.10886 10.5779 8.68162 3.87803 15.5251 1.81623C21.4003 0.0461424 28.6324 1.51561 34.4508 2.82412C39.0375 3.85564 44.5406 8.15608 47.4525 12.3301C48.949 14.4753 49.2263 15.1891 49.2263 17.5871Z" stroke="#441948" stroke-width="2" stroke-linecap="round" stroke-linejoin="round"/>
<g clip-path="url(#clip0_26_1158)">
<path fill-rule="evenodd" clip-rule="evenodd" d="M30.98 39.4738C31.3825 39.7588 31.9013 39.83 32.3638 39.655C32.8263 39.4788 33.1663 39.0838 33.2688 38.605C34.355 33.5 36.99 20.5788 37.9788 15.935C38.0538 15.585 37.9288 15.2213 37.6538 14.9875C37.3788 14.7538 36.9975 14.6863 36.6575 14.8125C31.4163 16.7525 15.275 22.8088 8.67751 25.25C8.25876 25.405 7.98626 25.8075 8.00001 26.2488C8.01501 26.6913 8.31251 27.075 8.74126 27.2038C11.7 28.0888 15.5838 29.32 15.5838 29.32C15.5838 29.32 17.3988 34.8013 18.345 37.5888C18.4638 37.9388 18.7375 38.2138 19.0988 38.3088C19.4588 38.4025 19.8438 38.3038 20.1125 38.05C21.6325 36.615 23.9825 34.3962 23.9825 34.3962C23.9825 34.3962 28.4475 37.67 30.98 39.4738ZM17.2175 28.6275L19.3163 35.55L19.7825 31.1663C19.7825 31.1663 27.8913 23.8525 32.5138 19.6838C32.6488 19.5613 32.6675 19.3563 32.555 19.2125C32.4438 19.0688 32.2388 19.035 32.085 19.1325C26.7275 22.5538 17.2175 28.6275 17.2175 28.6275Z" fill="#441948"/>
</g>
<defs>
<clipPath id="clip0_26_1158">
<rect width="30" height="30" fill="white" transform="translate(8 11)"/>
</clipPath>
</defs>
</svg>
