<svg width="52" height="52" viewBox="0 0 52 52" fill="none" xmlns="http://www.w3.org/2000/svg">
<path d="M17.5871 2.77375C22.4773 2.77375 26.7155 1 31.6058 1C36.9895 2.81651 39.4704 6.60141 43.8721 9.86873C48.1097 13.0143 50.1684 18.6862 50.8814 24.0587C51.489 28.6373 49.6022 33.8643 48.8547 38.4041C48.3976 41.1803 44.3559 45.2184 43.8721 45.3437C39.4926 46.4777 34.7028 49.9965 30.2456 50.6649C25.3621 51.3972 21.1093 50.7073 16.1657 50.6649C10.5779 48.8911 3.87803 43.3184 1.81623 36.4749C0.0461437 30.5997 1.51561 23.3676 2.82412 17.5492C3.85564 12.9625 8.15608 7.45936 12.3301 4.54749C14.4753 3.051 15.1891 2.77375 17.5871 2.77375Z" stroke="#441948" stroke-width="2" stroke-linecap="round" stroke-linejoin="round"/>
<path d="M44 16.551C42.6553 17.1631 41.2247 17.5654 39.758 17.744C41.3108 16.7853 42.4642 15.2969 43.005 13.554C41.5598 14.4341 39.9724 15.0561 38.314 15.392C37.6317 14.6399 36.7998 14.0386 35.8717 13.6267C34.9435 13.2148 33.9395 13.0013 32.924 13C28.844 13 25.538 16.392 25.538 20.573C25.538 21.167 25.605 21.746 25.729 22.299C19.592 21.983 14.15 18.968 10.506 14.384C9.84879 15.5461 9.50489 16.859 9.508 18.194C9.508 20.821 10.811 23.139 12.792 24.497C11.6165 24.4577 10.4683 24.1323 9.447 23.549V23.645C9.447 27.315 11.992 30.376 15.372 31.07C14.2855 31.3738 13.143 31.4187 12.036 31.201C12.976 34.21 15.704 36.401 18.936 36.461C17.4165 37.6903 15.6654 38.6016 13.7867 39.1407C11.908 39.6797 9.94012 39.8356 8 39.599C11.359 41.8181 15.2962 43.0008 19.322 43C32.907 43 40.334 31.46 40.334 21.45C40.334 21.123 40.327 20.796 40.313 20.471C41.7647 19.3933 43.0132 18.066 44 16.551Z" fill="#441948"/>
</svg>
