<svg width="52" height="52" viewBox="0 0 52 52" fill="none" xmlns="http://www.w3.org/2000/svg">
<path d="M34.4129 49.2263C29.5227 49.2263 25.2845 51 20.3942 51C15.0105 49.1835 12.5296 45.3986 8.12794 42.1313C3.89032 38.9857 1.83161 33.3138 1.11864 27.9413C0.511038 23.3627 2.39777 18.1357 3.14526 13.5959C3.60237 10.8197 7.64405 6.78164 8.12794 6.65634C12.5074 5.52232 17.2973 2.0035 21.7544 1.33511C26.6379 0.602781 30.8907 1.2927 35.8343 1.33511C41.4221 3.10886 48.122 8.68162 50.1838 15.5251C51.9539 21.4003 50.4844 28.6324 49.1759 34.4508C48.1444 39.0375 43.8439 44.5406 39.6699 47.4525C37.5247 48.949 36.8109 49.2263 34.4129 49.2263Z" stroke="#441948" stroke-width="2" stroke-linecap="round" stroke-linejoin="round"/>
<path d="M18.5143 10.627C18.0586 10.5563 18.0394 10.5479 18.2539 10.5149C18.6649 10.4516 19.6353 10.5379 20.3041 10.6971C21.8653 11.0688 23.286 12.021 24.8025 13.712L25.2053 14.1613L25.7816 14.0685C28.2096 13.6777 30.6796 13.9883 32.7455 14.9441C33.3139 15.2071 34.21 15.7306 34.3219 15.8652C34.3576 15.908 34.4231 16.184 34.4674 16.4784C34.6209 17.4972 34.5441 18.2781 34.233 18.8613C34.0637 19.1788 34.0543 19.2793 34.1681 19.5509C34.2589 19.7677 34.5122 19.9281 34.7631 19.9278C35.2765 19.9271 35.8291 19.0959 36.0851 17.9393L36.1868 17.4799L36.3883 17.7084C37.4934 18.9625 38.3614 20.6727 38.5105 21.8901L38.5493 22.2074L38.3636 21.9189C38.0439 21.4224 37.7227 21.0844 37.3114 20.8118C36.5699 20.3204 35.7859 20.1532 33.7096 20.0436C31.8343 19.9446 30.773 19.7842 29.7206 19.4405C27.9301 18.8558 27.0274 18.0771 24.9005 15.2822C23.9558 14.0409 23.3719 13.354 22.7911 12.8009C21.4713 11.5441 20.1744 10.8849 18.5143 10.627Z" fill="#441948"/>
<path d="M34.7448 13.3987C34.792 12.5669 34.9047 12.0182 35.1311 11.5172C35.2207 11.3188 35.3048 11.1565 35.3177 11.1565C35.3307 11.1565 35.2917 11.3029 35.2311 11.4818C35.0665 11.9681 35.0395 12.6332 35.1528 13.4071C35.2968 14.389 35.3786 14.5306 36.4148 15.5913C36.9009 16.0888 37.4661 16.7162 37.6711 16.9856L38.0437 17.4755L37.6711 17.1254C37.2154 16.6973 36.1674 15.8625 35.9359 15.7431C35.7807 15.6631 35.7576 15.6644 35.6619 15.7599C35.5736 15.8479 35.5551 15.98 35.5428 16.6048C35.5238 17.5784 35.3913 18.2034 35.0714 18.8284C34.8985 19.1663 34.8712 19.0942 35.0278 18.7127C35.1446 18.4279 35.1565 18.3027 35.1556 17.36C35.1538 15.4662 34.9293 15.0109 33.6128 14.2309C33.2792 14.0333 32.7297 13.7483 32.3916 13.5976C32.0535 13.4469 31.7849 13.3155 31.7947 13.3058C31.832 13.2686 33.1159 13.6439 33.6327 13.843C34.4013 14.1391 34.5282 14.1775 34.6216 14.1418C34.6842 14.1179 34.7144 13.9353 34.7448 13.3987Z" fill="#441948"/>
<path d="M19.3995 16.6387C18.4743 15.363 17.9019 13.407 18.0258 11.9448L18.0642 11.4923L18.2747 11.5308C18.6703 11.603 19.3521 11.8573 19.6714 12.0515C20.5477 12.5845 20.927 13.2862 21.3129 15.0881C21.426 15.6159 21.5743 16.2131 21.6425 16.4154C21.7524 16.7409 22.1675 17.5011 22.5051 17.9948C22.7482 18.3504 22.5867 18.5189 22.0493 18.4703C21.2285 18.3961 20.1168 17.6277 19.3995 16.6387Z" fill="#441948"/>
<path d="M33.6226 26.1334C29.2989 24.3898 27.7761 22.8763 27.7761 20.3227C27.7761 19.9469 27.7891 19.6395 27.8048 19.6395C27.8205 19.6395 27.9878 19.7635 28.1765 19.9151C29.0533 20.6194 30.0351 20.9202 32.7531 21.3173C34.3525 21.5511 35.2526 21.7398 36.0828 22.0156C38.7218 22.8922 40.3546 24.6711 40.7439 27.0941C40.8571 27.7981 40.7907 29.1184 40.6072 29.8142C40.4625 30.3638 40.0206 31.3545 39.9033 31.3924C39.8708 31.403 39.839 31.2783 39.8306 31.1085C39.7862 30.1987 39.3271 29.313 38.5562 28.6494C37.6797 27.8951 36.502 27.2944 33.6226 26.1334Z" fill="#441948"/>
<path d="M30.5875 26.8577C30.5332 26.5348 30.4393 26.1225 30.3786 25.9414L30.2683 25.6122L30.4733 25.8426C30.7568 26.1613 30.9809 26.5693 31.1708 27.1126C31.3158 27.5273 31.3321 27.6505 31.331 28.3244C31.3299 28.986 31.3118 29.1247 31.1779 29.4979C30.9669 30.0865 30.7049 30.5038 30.2654 30.9518C29.4756 31.7569 28.4602 32.2026 26.9949 32.3875C26.7401 32.4196 25.9978 32.4737 25.3451 32.5077C23.7002 32.5934 22.6177 32.7704 21.645 33.1125C21.5052 33.1617 21.3803 33.1916 21.3676 33.1789C21.3283 33.1397 21.9906 32.7442 22.5376 32.4803C23.3089 32.1082 24.0767 31.9051 25.7971 31.6182C26.6469 31.4764 27.5245 31.3044 27.7474 31.236C29.8519 30.5898 30.9336 28.922 30.5875 26.8577Z" fill="#441948"/>
<path d="M32.5694 30.3832C31.9949 29.1463 31.863 27.9522 32.1777 26.8384C32.2114 26.7195 32.2655 26.622 32.2981 26.622C32.3307 26.622 32.4662 26.6955 32.5993 26.7852C32.864 26.9637 33.3949 27.2642 34.8094 28.0366C36.5745 29.0005 37.5808 29.7468 38.2652 30.5995C38.8645 31.3463 39.2354 32.1967 39.414 33.2338C39.515 33.8213 39.4558 35.2349 39.3053 35.8264C38.8307 37.6917 37.7278 39.1567 36.1546 40.0116C35.9241 40.1369 35.7172 40.2398 35.6949 40.2402C35.6725 40.2406 35.7564 40.0268 35.8814 39.7649C36.4107 38.657 36.4709 37.5792 36.0708 36.3796C35.8258 35.6451 35.3264 34.7488 34.3179 33.2341C33.1453 31.473 32.8578 31.0042 32.5694 30.3832Z" fill="#441948"/>
<path d="M16.329 37.0566C17.9335 35.6998 19.9299 34.7359 21.7484 34.44C22.5321 34.3124 23.8377 34.3631 24.5634 34.5491C25.7267 34.8473 26.7673 35.5151 27.3085 36.3108C27.8374 37.0884 28.0643 37.7661 28.3006 39.2739C28.3938 39.8687 28.4952 40.4659 28.5258 40.6012C28.7032 41.3826 29.0485 42.0072 29.4763 42.3209C30.1558 42.819 31.326 42.85 32.477 42.4003C32.6724 42.324 32.842 42.2712 32.8539 42.2831C32.8956 42.3246 32.3161 42.7133 31.9071 42.9178C31.3569 43.193 30.9194 43.2995 30.3381 43.2995C29.2838 43.2995 28.4086 42.7623 27.6782 41.6671C27.5345 41.4516 27.2115 40.8059 26.9604 40.2325C26.1893 38.4709 25.8085 37.9343 24.9132 37.347C24.134 36.836 23.1292 36.7445 22.3732 37.1158C21.3803 37.6034 21.1032 38.8743 21.8144 39.6798C22.097 39.9998 22.6242 40.2759 23.0552 40.3296C23.8615 40.4301 24.5545 39.8157 24.5545 39.0003C24.5545 38.4709 24.3513 38.1688 23.8399 37.9376C23.1413 37.6219 22.3904 37.9909 22.394 38.6482C22.3955 38.9284 22.5174 39.1045 22.7979 39.2316C22.9778 39.3131 22.982 39.3196 22.8352 39.2891C22.1943 39.1559 22.0441 38.382 22.5595 37.8682C23.1782 37.2514 24.4577 37.5236 24.8971 38.3655C25.0817 38.7191 25.1031 39.4234 24.9422 39.8488C24.582 40.8006 23.5318 41.3012 22.4664 41.0288C21.7412 40.8433 21.4459 40.6425 20.5714 39.7403C19.0518 38.1726 18.4618 37.8688 16.2711 37.5263L15.8513 37.4606L16.329 37.0566Z" fill="#441948"/>
<path fill-rule="evenodd" clip-rule="evenodd" d="M4.87041 1.93774C9.94512 8.10655 17.7688 17.711 18.1572 18.2487C18.4779 18.6927 18.3572 19.0919 17.8078 19.4047C17.5023 19.5787 16.8741 19.7549 16.5596 19.7549C16.2039 19.7549 15.8032 19.5834 15.5114 19.3061C15.3051 19.1102 14.4727 17.8652 12.5509 14.8786C11.0805 12.5934 9.84988 10.6977 9.81634 10.666C9.73872 10.5926 9.74005 10.5951 12.401 15.3636C14.0718 18.3579 14.6358 19.4165 14.6358 19.558C14.6358 19.846 14.5574 19.9973 14.2028 20.3936C13.6115 21.0542 13.3472 21.7965 13.1564 23.3327C12.9425 25.0548 12.3411 26.2713 10.6743 28.3533C9.69863 29.572 9.53896 29.7954 9.29278 30.2866C8.98264 30.9052 8.89738 31.2516 8.86283 32.0327C8.82632 32.8586 8.89746 33.3921 9.14941 34.1817C9.36993 34.873 9.60011 35.3294 10.1886 36.2425C10.6965 37.0303 10.989 37.6159 10.989 37.8448C10.989 38.0271 11.0237 38.0273 11.8108 37.8494C13.6942 37.4234 15.2236 36.6741 16.0837 35.756C16.616 35.1877 16.741 34.8739 16.745 34.0952C16.7477 33.5858 16.7298 33.4791 16.5924 33.1861C16.3686 32.7091 15.9612 32.3126 15.0632 31.6978C13.8867 30.8923 13.3842 30.2437 13.2454 29.3519C13.1315 28.6201 13.2636 28.1037 13.9145 26.7375C14.5882 25.3233 14.7551 24.7206 14.8681 23.2952C14.941 22.3741 15.042 22.0109 15.3062 21.7195C15.5817 21.4154 15.8298 21.3125 16.5117 21.2191C17.6234 21.067 18.3312 20.779 18.9131 20.242C19.4179 19.7761 19.6291 19.3272 19.6616 18.6514L19.6862 18.1392L19.4041 17.8098C18.3826 16.6169 4.18631 1 4.12344 1C4.11001 1 4.44616 1.42201 4.87041 1.93774ZM11.5624 32.9672C11.7934 32.5576 11.6707 32.0309 11.2844 31.7736C10.9193 31.5305 10.3522 31.645 10.3522 31.9618C10.3522 32.0584 10.4057 32.1288 10.5259 32.1909C10.7284 32.2952 10.7432 32.4126 10.5838 32.6525C10.4224 32.8955 10.4354 33.1091 10.6205 33.2542C10.9189 33.4882 11.3412 33.3595 11.5624 32.9672Z" fill="#441948"/>
<path fill-rule="evenodd" clip-rule="evenodd" d="M20.3879 21.4878C19.866 21.6484 19.3587 22.2023 19.2016 22.7833C19.1058 23.1377 19.1602 23.7593 19.3037 23.9512C19.5355 24.2613 19.7597 24.343 20.3668 24.3387C21.5553 24.3305 22.5885 23.8199 22.7086 23.1816C22.8071 22.6585 22.3533 21.9334 21.7283 21.6152C21.4057 21.4509 20.7198 21.3858 20.3879 21.4878ZM21.7773 22.5759C21.9606 22.3152 21.8804 22.0332 21.5687 21.8426C20.9751 21.4795 20.0773 21.7799 20.0773 22.3416C20.0773 22.6212 20.5454 22.9262 20.9746 22.9262C21.2602 22.9262 21.6511 22.7557 21.7773 22.5759Z" fill="#441948"/>
</svg>
